<svg xmlns="http://www.w3.org/2000/svg" width="230.646" height="79.545" viewBox="0 0 230.646 79.545">
  <g id="logo" transform="translate(-2.3 -254.3)">
    <g id="Groupe_2468" data-name="Groupe 2468" transform="translate(2.3 254.3)">
      <g id="Groupe_2466" data-name="Groupe 2466" transform="translate(74.872 53.868)">
        <path id="Tracé_16690" data-name="Tracé 16690" d="M192.043,353.891c3.668,0,5.628-2.11,5.628-6.231,0-4.171-2.06-6.583-5.628-6.583s-5.628,2.462-5.628,6.532c0,1.658.3,2.764.8,3.115l.754.5h-8.241c-2.412,0-3.467-.854-3.467-2.864V335.6H173.3v12.864c0,3.115,1.809,5.025,5.176,5.427l.251.05v.05l13.316-.1Zm0-10.351c1.859,0,2.663,1.206,2.663,4.07,0,2.563-.754,3.568-2.663,3.568s-2.663-1-2.663-3.618c.05-2.764.8-4.02,2.663-4.02" transform="translate(-173.3 -333.54)" fill="#fff"/>
        <rect id="Rectangle_5022" data-name="Rectangle 5022" width="3.015" height="2.965" transform="translate(49.647 2.01)" fill="#fff"/>
        <rect id="Rectangle_5023" data-name="Rectangle 5023" width="3.015" height="2.965" transform="translate(19.648 3.467)" fill="#fff"/>
        <rect id="Rectangle_5024" data-name="Rectangle 5024" width="3.015" height="2.965" transform="translate(17.236)" fill="#fff"/>
        <rect id="Rectangle_5025" data-name="Rectangle 5025" width="3.015" height="2.965" transform="translate(15.025 3.467)" fill="#fff"/>
        <path id="Tracé_16691" data-name="Tracé 16691" d="M256.189,359.612H279.2c2.965,0,4.573-1.608,4.573-4.522V347.1h-2.914v6.934c0,2.462-.4,2.914-1.759,2.914h-2.261V347.1h-3.015v9.849h-5.075V347.1h-2.864v9.849h-9.7c-1.809,0-2.864-.8-2.864-2.211v-6.884H250.36v6.834A2.274,2.274,0,0,1,247.847,357H239.2V347.15h-5.527c-3.417,0-5.377,2.362-5.377,6.633,0,4.321,2.764,5.879,5.377,5.879h2.412l-.05.3a2.765,2.765,0,0,1-2.663,2.312v2.663l.3-.05a5.624,5.624,0,0,0,5.427-5.025l.05-.251H247.8a5.589,5.589,0,0,0,3.919-1.306l.151-.151.2.151a6.722,6.722,0,0,0,4.12,1.306m-19.949-2.663h-2.512c-1.457,0-2.462-1.307-2.462-3.216,0-2.613.854-4.07,2.462-4.07h2.512Z" transform="translate(-200.663 -339.261)" fill="#fff"/>
      </g>
      <g id="Groupe_2467" data-name="Groupe 2467">
        <path id="Tracé_16692" data-name="Tracé 16692" d="M32.44,253.746A8.437,8.437,0,0,0,34,257.916c1.407,1.658,3.819,2.512,7.236,2.512a16.564,16.564,0,0,0,4.975-.653,4.7,4.7,0,0,0,3.618-4.723,3.519,3.519,0,0,0-1.759-3.115,19.964,19.964,0,0,0-5.628-1.909l-4.422-.955c-4.321-.955-7.286-2.01-8.894-3.115-2.663-1.909-4.07-4.874-4.07-8.844a11.823,11.823,0,0,1,4.02-9.1c2.663-2.412,6.633-3.618,11.809-3.618a18.236,18.236,0,0,1,11.105,3.417c3.065,2.311,4.673,5.578,4.824,9.9H48.571A5.884,5.884,0,0,0,45.3,232.49a11.469,11.469,0,0,0-5.025-1.005,9.468,9.468,0,0,0-5.377,1.357,4.128,4.128,0,0,0-2.01,3.718,3.418,3.418,0,0,0,1.96,3.216,28.972,28.972,0,0,0,5.427,1.708l7.135,1.708a18.92,18.92,0,0,1,7.035,2.965q3.618,2.864,3.618,8.291a11.54,11.54,0,0,1-4.321,9.246c-2.864,2.462-6.934,3.668-12.16,3.668-5.377,0-9.547-1.206-12.613-3.618a12.05,12.05,0,0,1-4.673-10h8.14Z" transform="translate(-24.3 -224.35)" fill="#fff"/>
        <path id="Tracé_16693" data-name="Tracé 16693" d="M111.893,226.85h0v24.924c0,2.814.3,4.824,1,6.13,1,2.311,3.266,3.417,6.683,3.417s5.628-1.156,6.683-3.417a14.251,14.251,0,0,0,1-6.13V226.8h8.643v24.974c0,4.321-.653,7.688-2.01,10.1-2.462,4.422-7.236,6.633-14.271,6.633s-11.809-2.211-14.321-6.633c-1.357-2.412-2.01-5.779-2.01-10.1V235.393a8.578,8.578,0,0,1,8.593-8.542" transform="translate(-63.603 -225.544)" fill="#fff"/>
        <path id="Tracé_16694" data-name="Tracé 16694" d="M184.1,226.9h8.894l16.13,28.291V226.9h7.889v40.6h-8.442l-16.532-28.843V267.5H184.1Z" transform="translate(-103.801 -225.594)" fill="#fff"/>
        <path id="Tracé_16695" data-name="Tracé 16695" d="M296.313,262.59c-3.065,3.166-7.487,4.723-13.316,4.723-5.779,0-10.251-1.558-13.316-4.723-4.12-3.869-6.181-9.447-6.181-16.783,0-7.437,2.06-13.015,6.181-16.783,3.065-3.166,7.487-4.723,13.316-4.723,5.779,0,10.251,1.558,13.316,4.723,4.12,3.769,6.13,9.3,6.13,16.783,0,7.336-2.06,12.914-6.13,16.783m-5.326-6.13c1.96-2.462,2.965-5.98,2.965-10.552s-1-8.09-2.965-10.552a10.451,10.451,0,0,0-16.03-.05c-2.01,2.512-3.015,5.98-3.015,10.552s1,8.14,3.015,10.552a9.85,9.85,0,0,0,8.04,3.718,9.712,9.712,0,0,0,7.99-3.668" transform="translate(-143.303 -224.3)" fill="#fff"/>
        <path id="Tracé_16696" data-name="Tracé 16696" d="M373.783,226.9h8.844l-11.256,33.064a11.2,11.2,0,0,1-10.6,7.588L347,226.95h9.045l8.844,30.853Z" transform="translate(-184.845 -225.594)" fill="#fff"/>
        <path id="Tracé_16697" data-name="Tracé 16697" d="M421.272,226.9h9.246a.43.43,0,0,1,.452.352l14.271,40.3h-9.2l-2.663-8.341H418.458l-2.311,6.934a2.069,2.069,0,0,1-1.96,1.407H406.8Zm-.6,25.276h10.4L425.945,236.2Z" transform="translate(-214.595 -225.594)" fill="#fff"/>
      </g>
    </g>
  </g>
</svg>
